<svg xmlns="http://www.w3.org/2000/svg" viewBox="0 0 256 256" role="img" aria-label="Taste of China icon">
  <defs>
    <radialGradient id="bg" cx="50%" cy="35%" r="90%">
      <stop offset="0%" stop-color="#ff4f4f"/>
      <stop offset="100%" stop-color="#b22222"/>
    </radialGradient>
    <linearGradient id="gold" x1="0%" y1="0%" x2="100%" y2="100%">
      <stop offset="0%" stop-color="#f9d16c"/>
      <stop offset="100%" stop-color="#c68631"/>
    </linearGradient>
  </defs>
  <rect width="256" height="256" rx="40" ry="40" fill="url(#bg)"/>
  <g transform="translate(128 130)">
    <ellipse cx="0" cy="0" rx="72" ry="80" fill="#fff5e6" opacity="0.12"/>
    <path d="M-40 -60 a40 40 0 0 1 80 0 v100 a40 40 0 0 1 -80 0 z" fill="#ff7e7e"/>
    <path d="M-40 -60 a40 40 0 0 1 80 0" fill="none" stroke="#f7d06b" stroke-width="12"/>
    <path d="M-40 20 a40 40 0 0 0 80 0" fill="none" stroke="#f7d06b" stroke-width="12"/>
    <path d="M-22 -8 h44" fill="none" stroke="#f7d06b" stroke-width="10" stroke-linecap="round"/>
    <path d="M-30 40 l-18 48" fill="none" stroke="#c68631" stroke-width="10" stroke-linecap="round"/>
    <path d="M30 40 l18 48" fill="none" stroke="#c68631" stroke-width="10" stroke-linecap="round"/>
    <path d="M-4 -70 v-28" fill="none" stroke="#f7d06b" stroke-width="16" stroke-linecap="round"/>
    <path d="M-30 -52 h60" fill="none" stroke="#f7d06b" stroke-width="12" stroke-linecap="round"/>
    <circle cx="0" cy="12" r="16" fill="#f7d06b"/>
  </g>
</svg>
